<?xml version="1.0" encoding="UTF-8" standalone="no"?>
<!-- Created with Inkscape (http://www.inkscape.org/) -->

<svg
   width="12.7mm"
   height="12.7mm"
   viewBox="0 0 12.7 12.7"
   version="1.1"
   id="svg5"
   inkscape:version="1.2.2 (b0a8486541, 2022-12-01)"
   sodipodi:docname="favicon-monochrome.svg"
   inkscape:export-filename="../../../../Zwischenablage/favicon.png"
   inkscape:export-xdpi="64"
   inkscape:export-ydpi="64"
   xmlns:inkscape="http://www.inkscape.org/namespaces/inkscape"
   xmlns:sodipodi="http://sodipodi.sourceforge.net/DTD/sodipodi-0.dtd"
   xmlns="http://www.w3.org/2000/svg"
   xmlns:svg="http://www.w3.org/2000/svg">
  <sodipodi:namedview
     id="namedview7"
     pagecolor="#505050"
     bordercolor="#eeeeee"
     borderopacity="1"
     inkscape:showpageshadow="0"
     inkscape:pageopacity="0"
     inkscape:pagecheckerboard="0"
     inkscape:deskcolor="#505050"
     inkscape:document-units="mm"
     showgrid="false"
     inkscape:zoom="8"
     inkscape:cx="-9.9375"
     inkscape:cy="31.625"
     inkscape:window-width="1920"
     inkscape:window-height="1063"
     inkscape:window-x="0"
     inkscape:window-y="0"
     inkscape:window-maximized="1"
     inkscape:current-layer="layer1" />
  <defs
     id="defs2">
    <linearGradient
       id="linearGradient6501"
       inkscape:swatch="solid">
      <stop
         style="stop-color:#000000;stop-opacity:1;"
         offset="0"
         id="stop6499" />
    </linearGradient>
  </defs>
  <g
     inkscape:label="Layer 1"
     inkscape:groupmode="layer"
     id="layer1">
    <path
       style="fill:#000000;fill-opacity:1;fill-rule:evenodd;stroke:#000000;stroke-width:0.375;stroke-linecap:butt;stroke-linejoin:bevel;stroke-miterlimit:1.4;stroke-dasharray:none;stroke-opacity:1"
       d="M 4.3363253,0.65415045 8.3972952,2.0848724 V 11.837121 L 4.3363253,10.023666 Z"
       id="path4490-7"
       sodipodi:nodetypes="ccccc" />
    <path
       d="M 4.3361729,0.65436216 8.3971431,2.0850842 V 11.837333 L 4.3361729,10.023878 Z m 8.1219391,0 -4.0609689,1.43072194 v 9.7522529 l 4.0609689,-1.813459 z m -8.1219391,0 L 0.27520315,2.0850841 V 11.837335 L 4.3361729,10.023878 Z"
       style="fill:none;fill-opacity:1;fill-rule:evenodd;stroke:none;stroke-width:0.515;stroke-linecap:butt;stroke-linejoin:miter;stroke-miterlimit:1.7;stroke-dasharray:none;stroke-opacity:1"
       id="path74242" />
    <g
       aria-label="{"
       transform="matrix(1.0166429,-0.49333206,0,0.95363785,0.18557064,0.09432467)"
       id="text51675"
       style="font-size:8.44482px;line-height:125%;letter-spacing:0px;word-spacing:0px;fill:#000000;stroke-width:0.263901px;fill-opacity:1">
      <path
         d="M 0.57901689,7.9845129 V 6.9948855 Q 1.0284727,6.990762 1.2552623,6.7309848 1.4820519,6.4670842 1.4820519,5.5516789 q 0,-0.6968627 0.049481,-1.0308619 Q 1.5851381,4.1826943 1.7830635,3.9559047 1.980989,3.7291151 2.294371,3.6301523 2.607753,3.5270661 3.1809122,3.5270661 H 3.399455 v 0.985504 q -0.5978999,0 -0.7174799,0.1237034 Q 2.5665186,4.7599769 2.5582717,5.1187169 2.533531,6.1083443 2.4922965,6.4052325 2.4551855,6.7021207 2.3108648,6.9742682 2.1706676,7.2422923 1.7830635,7.4896992 2.1500504,7.7123653 2.3149883,8.0216239 2.4840496,8.3308824 2.5129137,8.9122885 l 0.061852,1.1999235 q 0.037111,0.173185 0.1773082,0.259777 0.1401972,0.09072 0.6432578,0.09072 v 0.989627 H 3.1809122 q -0.6597516,0 -1.0184915,-0.152567 Q 1.8036808,11.151321 1.6428663,10.809074 1.4820519,10.466828 1.4820519,9.7039904 q 0,-0.8411832 -0.057728,-1.0762197 Q 1.3665954,8.3927342 1.2016575,8.1989321 1.0367196,8.0010066 0.57901689,7.9845129 Z"
         style="font-family:Impact;-inkscape-font-specification:Impact;fill:#000000;fill-opacity:1"
         id="path67897" />
    </g>
    <g
       aria-label="}"
       transform="matrix(1.0166429,-0.49333206,0,0.95363785,0.18557064,0.09432467)"
       id="text51675-0"
       style="font-size:8.44482px;line-height:125%;letter-spacing:0px;word-spacing:0px;fill:#000000;stroke-width:0.263901px;fill-opacity:1">
      <path
         d="m 11.504417,11.983822 q -0.449456,0.0041 -0.676245,0.268024 -0.22679,0.263901 -0.22679,1.17106 0,0.700986 -0.04948,1.034985 -0.04948,0.338123 -0.247407,0.564912 -0.197926,0.22679 -0.5113077,0.325753 -0.313382,0.103086 -0.8865412,0.103086 H 8.6881024 v -0.989628 q 0.5731592,0 0.7009861,-0.11958 0.1319503,-0.11958 0.1401972,-0.486566 0.024741,-1.055603 0.074222,-1.352491 Q 9.6571127,12.202365 9.80968,11.942588 9.9663711,11.682811 10.30037,11.489009 9.9457539,11.258096 9.8055567,11.035429 9.6653595,10.812763 9.6158781,10.552986 9.5663967,10.289085 9.541656,9.5798525 9.5169154,8.8664961 9.4839278,8.7634099 9.4509402,8.6603237 9.3231133,8.5861017 9.1994099,8.5118796 8.683979,8.5118796 V 7.5263757 h 0.2185427 q 0.6597516,0 1.0184915,0.1525675 0.3587398,0.1484442 0.5195548,0.4906903 0.160814,0.3422461 0.160814,1.1050839 0,0.8741706 0.06185,1.1009606 0.06598,0.226789 0.226789,0.416468 0.164938,0.185555 0.614394,0.202049 z"
         style="font-family:Impact;-inkscape-font-specification:Impact;fill:#000000;fill-opacity:1"
         id="path67900" />
    </g>
    <path
       id="path75709"
       style="fill:none;fill-opacity:1;fill-rule:evenodd;stroke:#000000;stroke-width:0.5;stroke-linecap:butt;stroke-linejoin:miter;stroke-miterlimit:6.3;stroke-dasharray:none;stroke-opacity:1"
       d="M 4.3361694 0.65422363 L 0.27543538 2.0846273 L 0.27543538 11.837004 L 4.3361694 10.023678 L 8.3974202 11.837004 L 12.458154 10.023678 L 12.458154 0.65422363 L 8.3974202 2.0846273 L 4.3361694 0.65422363 z " />
  </g>
</svg>
