<svg xmlns="http://www.w3.org/2000/svg" shape-rendering="geometricPrecision" text-rendering="geometricPrecision" image-rendering="optimizeQuality" fill-rule="evenodd" clip-rule="evenodd" viewBox="0 0 380 511.43"><path fill="white" d="M26.51 0H247.2c1.36 0 2.64.27 3.82.77 2.03.67 3.78 2 4.98 3.73l91.28 108.36 30.4 35.9a9.729 9.729 0 0 1 2.3 6.28l.02 329.88c0 7.23-3.01 13.86-7.81 18.66l-.04.04c-4.8 4.8-11.43 7.81-18.66 7.81H26.51c-7.22 0-13.87-2.99-18.68-7.8l-.04-.04C3 498.79 0 492.18 0 484.92V26.51c0-7.27 2.98-13.89 7.78-18.69l.04-.04C12.62 2.98 19.24 0 26.51 0zm39.51 48.19h56.22v39.25H66.02v39.25h56.22v39.24H66.02v39.25h56.22v39.25h56.22v-39.25h-56.21v-39.25h56.21v-39.24h-56.21V87.44h56.21V48.19h-56.21v-28.7h105.69l-.43 11.49c-4.57 117.65-4.97 128.76 133 134.28v319.66c0 1.89-.81 3.65-2.09 4.93-1.28 1.28-3.04 2.08-4.93 2.08H26.51c-1.9 0-3.67-.79-4.95-2.07-1.27-1.27-2.07-3.03-2.07-4.94V26.51c0-1.93.79-3.7 2.05-4.97a7.065 7.065 0 0 1 4.97-2.05h39.51v28.7zm283.22 97.13-5.94-7.06-96.1-113.47-.27 6.88c-3.74 96.29-4.2 108.6 102.31 113.65zM66.17 257.4h112.15v134.28H66.17V257.4zm21.43 68.51h69.29v42.61H87.6v-42.61z"/></svg>