<?xml version="1.0" encoding="utf-8"?><svg version="1.1" id="Layer_1" xmlns="http://www.w3.org/2000/svg" xmlns:xlink="http://www.w3.org/1999/xlink" x="0px" y="0px" viewBox="0 0 122.879 103.39" enable-background="new 0 0 122.879 103.39" xml:space="preserve"><g><path fill="white" d="M2.971,18.676l3.314-0.001v-8.14c0-0.817,0.334-1.561,0.87-2.098c0.541-0.539,1.284-0.873,2.102-0.873h3.233V2.971 c0-0.817,0.333-1.561,0.869-2.098C13.899,0.333,14.643,0,15.46,0h36.251c0.817,0,1.561,0.333,2.099,0.872 c0.539,0.535,0.873,1.278,0.873,2.099v4.593h48.155c0.821,0,1.565,0.333,2.101,0.869c0.537,0.537,0.87,1.281,0.87,2.102v8.14h3.342 c0.82,0,1.564,0.334,2.101,0.87c0.536,0.537,0.87,1.281,0.87,2.102c-0.015,0.238-0.023,0.355-0.065,0.585l-3.188,23.435 c8.447,5.653,14.011,15.282,14.011,26.209c0,17.404-14.109,31.515-31.515,31.515c-11.842,0-22.157-6.534-27.542-16.192H13.975 c-1.043,0-2.024-0.206-2.918-0.578c-0.937-0.39-1.776-0.965-2.49-1.673c-0.695-0.691-1.267-1.52-1.691-2.434 c-0.42-0.904-0.697-1.896-0.809-2.928l-6.051-57.63c-0.084-0.812,0.17-1.586,0.65-2.175c0.477-0.588,1.182-0.998,1.997-1.08 L2.971,18.676L2.971,18.676z M105.931,67.26h-0.004l-0.003-0.001h-0.003l-0.003-0.001h-0.002h-0.002h-0.004l-0.003-0.001h-0.003 l-0.003-0.001h-0.004h-0.003l-0.004-0.001h-0.003l-0.003-0.001h-0.004h-0.003h-0.001h-0.003l-0.003-0.001h-0.003l-0.004-0.001 h-0.003h-0.004l-0.003-0.001h-0.003h-0.004h-0.003l-0.004-0.001h-0.003h-0.001h-0.003l-0.003-0.001h-0.003h-0.004h-0.003h-0.004 l-0.003-0.001h-0.003h-0.004h-0.003l-0.004-0.001h-0.003h-0.001h-0.003h-0.003h-0.003h-0.004h-0.003l-0.004-0.001h-0.003h-0.004 h-0.003h-0.004h-0.003h-0.004l0,0h-0.003l-0.004-0.001h-0.003h-0.003h-0.004h-0.007h-0.003h-0.004h-0.003h-0.004h-0.003h-5.77 h-3.953v-9.723c0-0.862-0.706-1.571-1.571-1.571h-6.116c-0.862,0-1.572,0.709-1.572,1.571v9.723h-9.723l0,0 c-0.862,0-1.571,0.709-1.571,1.575v6.112c0,0.866,0.709,1.575,1.571,1.572h9.727v4.76v4.963v0.017v0.017v0.007l0.001,0.011v0.017 l0.001,0.013v0.005l0.001,0.017l0.001,0.017v0.002l0.002,0.015l0.001,0.017l0.001,0.008l0.001,0.01l0.002,0.016l0.002,0.014v0.004 l0.002,0.016l0.003,0.017v0.003l0.003,0.014l0.002,0.017l0.002,0.009l0.001,0.007l0.004,0.017l0.002,0.015l0.001,0.002l0.004,0.016 l0.003,0.017l0.001,0.004l0.003,0.012l0.004,0.016l0.003,0.011l0.001,0.006l0.005,0.016l0.004,0.016l0.005,0.016l0.005,0.016 l0.001,0.006l0.004,0.01l0.005,0.016l0.004,0.011l0.001,0.005l0.006,0.016l0.006,0.015v0.002l0.005,0.014l0.006,0.015l0.003,0.007 l0.004,0.009l0.006,0.015l0.005,0.013l0.001,0.003l0.007,0.015l0.007,0.015l0.001,0.002l0.006,0.013l0.007,0.015l0.003,0.008 l0.004,0.007l0.007,0.015l0.007,0.013l0.001,0.001l0.007,0.015l0.008,0.014l0.002,0.004l0.006,0.011l0.008,0.014l0.005,0.009 l0.003,0.005l0.009,0.015l0.008,0.013l0.009,0.015l0.009,0.014l0.003,0.004l0.006,0.009l0.009,0.014l0.006,0.01l0.003,0.004 l0.009,0.013l0.01,0.014v0.001l0.009,0.012l0.01,0.013l0.004,0.006l0.006,0.007l0.01,0.013l0.008,0.011l0.002,0.002 c0.289,0.365,0.735,0.602,1.232,0.602h6.113c0.497,0,0.944-0.235,1.233-0.602l0.001-0.001l0.009-0.012l0.01-0.013l0.004-0.005 l0.006-0.008l0.009-0.013l0.008-0.011l0.002-0.002l0.009-0.014l0.01-0.013l0.001-0.003l0.008-0.011l0.009-0.013l0.009-0.014 l0.008-0.014l0.009-0.013V87.04l0.009-0.014l0.008-0.014l0.002-0.004l0.006-0.011l0.008-0.014l0.005-0.009l0.003-0.005l0.008-0.015 l0.007-0.014l0.001-0.001l0.007-0.014l0.007-0.015l0.003-0.006l0.004-0.009l0.007-0.015l0.006-0.011l0.001-0.004l0.007-0.015 l0.002-0.003l0.01-0.024l0.001-0.002l0.006-0.016l0.003-0.007l0.003-0.008l0.006-0.016l0.005-0.013l0.001-0.002l0.006-0.016 l0.005-0.016l0.002-0.003l0.004-0.012l0.005-0.016l0.003-0.01l0.002-0.006l0.005-0.016l0.004-0.016h0.001l0.004-0.016l0.004-0.017 l0.002-0.005l0.003-0.011l0.004-0.016l0.002-0.012l0.001-0.005l0.004-0.016l0.004-0.017v-0.001l0.003-0.015l0.003-0.017 l0.001-0.007l0.002-0.01l0.003-0.016l0.002-0.014l0.001-0.003l0.002-0.017l0.002-0.017l0.001-0.003l0.001-0.014l0.002-0.017 l0.001-0.009l0.001-0.008l0.002-0.017l0.001-0.016v-0.002l0.001-0.017l0.001-0.017l0.001-0.005v-0.013l0.001-0.017v-0.011 l0.001-0.006v-0.018v-0.017v-4.963v-4.76h2.694h5.984h1.044c0.862,0,1.571-0.71,1.571-1.572v-6.116 C107.288,68.026,106.696,67.365,105.931,67.26L105.931,67.26z M103.285,42.696l2.456-18.061L9.143,24.626H6.265l5.706,54.375 c0.037,0.351,0.126,0.683,0.259,0.979s0.311,0.561,0.521,0.775c0.164,0.162,0.354,0.293,0.562,0.379l0.037,0.018 c0.186,0.072,0.393,0.112,0.617,0.112h47.306c-0.924-2.966-1.422-6.119-1.422-9.39c0-17.405,14.11-31.515,31.515-31.515 C95.584,40.36,99.608,41.191,103.285,42.696L103.285,42.696z M12.227,13.515v5.147l87.64-0.93v-4.218H51.711 c-0.821,0-1.564-0.333-2.102-0.871c-0.536-0.536-0.87-1.28-0.87-2.1V5.951h-30.31v4.593c0,0.816-0.333,1.559-0.87,2.097 c-0.543,0.542-1.285,0.874-2.101,0.874H12.227L12.227,13.515z"/></g></svg>